<?xml version="1.0" encoding="utf-8"?>
<!-- Generator: Adobe Illustrator 16.0.0, SVG Export Plug-In . SVG Version: 6.00 Build 0)  -->
<!DOCTYPE svg PUBLIC "-//W3C//DTD SVG 1.1//EN" "http://www.w3.org/Graphics/SVG/1.1/DTD/svg11.dtd">
<svg version="1.1" id="Layer_1" xmlns="http://www.w3.org/2000/svg" xmlns:xlink="http://www.w3.org/1999/xlink" x="0px" y="0px"
	 width="640px" height="480px" viewBox="0 0 640 480" enable-background="new 0 0 640 480" xml:space="preserve">
<path fill="#231F20" stroke="#FFFFFF" stroke-width="1.5897" stroke-miterlimit="10" d="M352.327,374.754
	c-80.772,0-146.252-65.479-146.252-146.254c0-80.773,65.48-146.254,146.252-146.254c58.565,0,109.079,34.427,132.438,84.142
	C459.197,94.209,390.344,42.503,309.405,42.503c-102.722,0-185.996,83.273-185.996,185.997s83.273,185.997,185.996,185.997
	c80.938,0,149.79-51.705,175.359-123.882C461.406,340.326,410.893,374.754,352.327,374.754z"/>
<polygon fill="#231F20" stroke="#FFFFFF" stroke-width="0.5281" stroke-miterlimit="10" points="484.76,175.904 491.109,225.688 
	540.069,216.084 498.789,240.915 505.937,281.095 484.76,249.278 450.584,281.095 474.846,240.915 429.459,216.084 481.323,225.699 
	"/>
</svg>
